HIERARCHY
ROOT hip
{
  OFFSET 0 0 0
  CHANNELS 6 Xposition Yposition Zposition Zrotation Yrotation Xrotation
  JOINT abdomen
  {
    OFFSET 0 20.6881 -0.73152
    CHANNELS 3 Zrotation Xrotation Yrotation
    JOINT chest
    {
      OFFSET 0 11.7043 -0.48768
      CHANNELS 3 Zrotation Xrotation Yrotation
      JOINT neck
      {
        OFFSET 0 22.1894 -2.19456
        CHANNELS 3 Zrotation Xrotation Yrotation
        JOINT head
        {
          OFFSET -0.24384 7.07133 1.2192
          CHANNELS 3 Zrotation Xrotation Yrotation
          JOINT leftEye
          {
            OFFSET 4.14528 8.04674 8.04672
            CHANNELS 3 Zrotation Xrotation Yrotation
            End Site
            {
              OFFSET 1 0 0
            }
          }
          JOINT rightEye
          {
            OFFSET -3.6576 8.04674 8.04672
            CHANNELS 3 Zrotation Xrotation Yrotation
            End Site
            {
              OFFSET 1 0 0
            }
          }
        }
      }
      JOINT rCollar
      {
        OFFSET -2.68224 19.2634 -4.8768
        CHANNELS 3 Zrotation Xrotation Yrotation
        JOINT rShldr
        {
          OFFSET -8.77824 -1.95073 1.46304
          CHANNELS 3 Zrotation Xrotation Yrotation
          JOINT rForeArm
          {
            OFFSET -28.1742 -1.7115 0.48768
            CHANNELS 3 Zrotation Xrotation Yrotation
            JOINT rHand
            {
              OFFSET -22.5879 0.773209 7.07136
              CHANNELS 3 Zrotation Xrotation Yrotation
              JOINT rThumb1
              {
                OFFSET -1.2192 -0.487915 3.41376
                CHANNELS 3 Zrotation Xrotation Yrotation
                JOINT rThumb2
                {
                  OFFSET -3.37035 -0.52449 3.41376
                  CHANNELS 3 Zrotation Xrotation Yrotation
                  End Site
                  {
                    OFFSET -1.78271 -1.18214 1.43049
                  }
                }
              }
              JOINT rIndex1
              {
                OFFSET -7.75947 0.938293 5.60832
                CHANNELS 3 Zrotation Xrotation Yrotation
                JOINT rIndex2
                {
                  OFFSET -2.54057 -0.884171 1.56538
                  CHANNELS 3 Zrotation Xrotation Yrotation
                  End Site
                  {
                    OFFSET -1.62519 -0.234802 1.16502
                  }
                }
              }
              JOINT rMid1
              {
                OFFSET -8.24714 1.18213 3.41376
                CHANNELS 3 Zrotation Xrotation Yrotation
                JOINT rMid2
                {
                  OFFSET -3.10165 -0.590103 1.0647
                  CHANNELS 3 Zrotation Xrotation Yrotation
                  End Site
                  {
                    OFFSET -2.48547 -0.328903 0.83742
                  }
                }
              }
              JOINT rRing1
              {
                OFFSET -8.82822 0.546677 1.51678
                CHANNELS 3 Zrotation Xrotation Yrotation
                JOINT rRing2
                {
                  OFFSET -2.60934 -0.819778 -0.0198488
                  CHANNELS 3 Zrotation Xrotation Yrotation
                  End Site
                  {
                    OFFSET -2.33842 -0.294052 0.168128
                  }
                }
              }
              JOINT rPinky1
              {
                OFFSET -8.27202 -0.0477905 -0.4584
                CHANNELS 3 Zrotation Xrotation Yrotation
                JOINT rPinky2
                {
                  OFFSET -1.82734 -0.647385 -0.700984
                  CHANNELS 3 Zrotation Xrotation Yrotation
                  End Site
                  {
                    OFFSET -1.69225 -0.51767 -0.607171
                  }
                }
              }
            }
          }
        }
      }
      JOINT lCollar
      {
        OFFSET 2.68224 19.2634 -4.8768
        CHANNELS 3 Zrotation Xrotation Yrotation
        JOINT lShldr
        {
          OFFSET 8.77824 -1.95073 1.46304
          CHANNELS 3 Zrotation Xrotation Yrotation
          JOINT lForeArm
          {
            OFFSET 28.1742 -1.7115 0.48768
            CHANNELS 3 Zrotation Xrotation Yrotation
            JOINT lHand
            {
              OFFSET 22.5879 0.773209 7.07136
              CHANNELS 3 Zrotation Xrotation Yrotation
              JOINT lThumb1
              {
                OFFSET 1.2192 -0.487915 3.41376
                CHANNELS 3 Zrotation Xrotation Yrotation
                JOINT lThumb2
                {
                  OFFSET 3.37035 -0.52449 3.41376
                  CHANNELS 3 Zrotation Xrotation Yrotation
                  End Site
                  {
                    OFFSET 1.78271 -1.18214 1.43049
                  }
                }
              }
              JOINT lIndex1
              {
                OFFSET 7.75947 0.938293 5.60832
                CHANNELS 3 Zrotation Xrotation Yrotation
                JOINT lIndex2
                {
                  OFFSET 2.54057 -0.884171 1.56538
                  CHANNELS 3 Zrotation Xrotation Yrotation
                  End Site
                  {
                    OFFSET 1.62519 -0.234802 1.16502
                  }
                }
              }
              JOINT lMid1
              {
                OFFSET 8.24714 1.18213 3.41376
                CHANNELS 3 Zrotation Xrotation Yrotation
                JOINT lMid2
                {
                  OFFSET 3.10165 -0.590103 1.0647
                  CHANNELS 3 Zrotation Xrotation Yrotation
                  End Site
                  {
                    OFFSET 2.48547 -0.328903 0.83742
                  }
                }
              }
              JOINT lRing1
              {
                OFFSET 8.82822 0.546677 1.51678
                CHANNELS 3 Zrotation Xrotation Yrotation
                JOINT lRing2
                {
                  OFFSET 2.60934 -0.819778 -0.0198488
                  CHANNELS 3 Zrotation Xrotation Yrotation
                  End Site
                  {
                    OFFSET 2.33842 -0.294052 0.168128
                  }
                }
              }
              JOINT lPinky1
              {
                OFFSET 8.27202 -0.0477905 -0.4584
                CHANNELS 3 Zrotation Xrotation Yrotation
                JOINT lPinky2
                {
                  OFFSET 1.82734 -0.647385 -0.700984
                  CHANNELS 3 Zrotation Xrotation Yrotation
                  End Site
                  {
                    OFFSET 1.69225 -0.51767 -0.607171
                  }
                }
              }
            }
          }
        }
      }
    }
  }
  JOINT rButtock
  {
    OFFSET -8.77824 4.35084 1.2192
    CHANNELS 3 Zrotation Xrotation Yrotation
    JOINT rThigh
    {
      OFFSET 0 -1.70687 -2.19456
      CHANNELS 3 Zrotation Xrotation Yrotation
      JOINT rShin
      {
        OFFSET 0 -36.8199 0.73152
        CHANNELS 3 Zrotation Xrotation Yrotation
        JOINT rFoot
        {
          OFFSET 0.73152 -45.1104 -5.12064
          CHANNELS 3 Zrotation Xrotation Yrotation
          End Site
          {
            OFFSET -1.1221 -3.69964 12.103
          }
        }
      }
    }
  }
  JOINT lButtock
  {
    OFFSET 8.77824 4.35084 1.2192
    CHANNELS 3 Zrotation Xrotation Yrotation
    JOINT lThigh
    {
      OFFSET 0 -1.70687 -2.19456
      CHANNELS 3 Zrotation Xrotation Yrotation
      JOINT lShin
      {
        OFFSET 0 -36.8199 0.73152
        CHANNELS 3 Zrotation Xrotation Yrotation
        JOINT lFoot
        {
          OFFSET -0.73152 -45.1104 -5.12064
          CHANNELS 3 Zrotation Xrotation Yrotation
          End Site
          {
            OFFSET 1.1221 -3.69964 12.103
          }
        }
      }
    }
  }
}
MOTION
Frames:	4
Frame Time:	0.03333
-0.006364472210407257 62.5674843788147 0.21015293896198273 -4.367547988891602 2.243292808532715 3.5995078086853027 -2.46077299118042 15.344239234924316 4.012439727783203 2.573270320892334 -9.904571533203125 1.3044989109039307 -5.120394229888916 15.084473609924316 -3.6260263919830322 8.908846855163574 -24.286468505859375 -4.729885578155518 -0.10458671301603317 -0.010708009824156761 0.07232669740915298 0.09885985404253006 -0.01811535470187664 -0.0039369179867208 -0.06085929647088051 0.015399279072880745 0.028777150437235832 40.662811279296875 33.78938293457031 19.449182510375977 -29.130615234375 -28.616992950439453 61.730133056640625 -0.27278879284858704 -13.094395637512207 -2.1270453929901123 0.009297139942646027 -0.0768360123038292 -0.049543533474206924 -0.017225127667188644 -0.03530523553490639 0.07745640724897385 0.013056680560112 0.045091211795806885 -0.04224030673503876 7.8795976638793945 5.5647501945495605 0.4015503227710724 -0.03839968144893646 0.03591066598892212 -0.0475614070892334 3.0061073303222656 0.952026903629303 0.1884511560201645 0.08898051828145981 -0.056882694363594055 -0.05726528912782669 10.416746139526367 0.6368788480758667 0.02820722572505474 -0.005819444544613361 -0.1391591876745224 -0.04226049408316612 2.300480604171753 -0.7217533588409424 -0.18880653381347656 0.0011732832062989473 0.11010412126779556 0.039939429610967636 -46.8940544128418 35.91940689086914 -29.45965003967285 28.423206329345703 -26.654245376586914 -59.001731872558594 0.26786452531814575 -14.16831111907959 2.2319493293762207 0.008173644542694092 -0.013197015039622784 -0.04967353120446205 0.005875229369848967 -0.11925668269395828 0.02300683781504631 0.004528062418103218 -0.023160509765148163 -0.01230604574084282 -7.796516418457031 5.648367881774902 -0.46428683400154114 -0.017848951742053032 -0.004493072163313627 -0.028893865644931793 -2.909700632095337 0.8965590596199036 -0.15108568966388702 -0.03151324391365051 0.052419718354940414 -0.027930155396461487 -10.40648078918457 0.6853846907615662 -0.027907803654670715 -0.0003350157930981368 0.024385832250118256 -0.010203857906162739 -2.1834092140197754 -0.6956625580787659 0.17425929009914398 0.03277553990483284 -0.16889138519763947 0.009337157011032104 -24.590435028076172 -39.046016693115234 -20.376182556152344 -1.2743422985076904 63.780174255371094 2.2924351692199707 -3.940216064453125 -10.818475723266602 -9.72933292388916 -0.05462970584630966 -0.1361522376537323 -0.019596591591835022 29.25617790222168 -38.32109069824219 22.568845748901367 1.4522645473480225 63.33290481567383 -2.572256565093994 4.1135334968566895 -10.991083145141602 13.493328094482422
-0.2602887339890003 63.67166042327881 0.10154414921998978 -3.4508750438690186 -0.28324809670448303 4.968761920928955 -2.8536341190338135 14.024088859558105 3.582988977432251 2.9950337409973145 -9.34422779083252 0.9052489995956421 -5.492894172668457 14.834936141967773 -4.273238658905029 8.85605525970459 -23.805286407470703 -6.545767307281494 0.022887324914336205 -0.11403250694274902 -0.1733294278383255 0.0298211220651865 -0.03312258422374725 -0.11788354814052582 0.014086517505347729 -0.020733406767249107 -0.03598817437887192 45.7056884765625 37.522125244140625 17.67043685913086 -26.8193302154541 -27.445283889770508 64.88270568847656 -0.07040476053953171 -11.15882682800293 -1.300648808479309 0.03395552933216095 0.03401928022503853 -0.016130929812788963 0.003592386143282056 0.07928291708230972 -0.12704189121723175 0.06439188867807388 -0.06621731072664261 0.013389350846409798 7.662338733673096 5.4439616203308105 0.38205844163894653 0.048312775790691376 0.039428576827049255 0.14999045431613922 2.8460142612457275 1.0239942073822021 0.1311855912208557 -0.12227186560630798 0.026077065616846085 0.03232849761843681 10.333610534667969 0.8906084895133972 0.0909343808889389 -0.052565354853868484 -0.10571860522031784 -0.012544701807200909 2.098641872406006 -0.6359591484069824 -0.10067149996757507 -0.021403882652521133 0.08664773404598236 0.0225229412317276 -52.91962814331055 38.730838775634766 -27.90650177001953 26.2511043548584 -24.972822189331055 -60.84397888183594 0.18354035913944244 -11.114416122436523 1.5030354261398315 -0.09503685683012009 0.030337633565068245 -0.048330292105674744 0.041735973209142685 0.15768969058990479 -0.04439510032534599 -0.028611894696950912 -0.047094203531742096 -0.12310230731964111 -7.535374164581299 5.290801525115967 -0.4957714378833771 0.016962939873337746 -0.038313012570142746 -0.14029167592525482 -2.9048573970794678 0.8113184571266174 -0.00958230160176754 0.18752023577690125 -0.011758850887417793 -0.03843078017234802 -10.187591552734375 0.7768290638923645 -0.050650157034397125 0.1423037350177765 -0.028955360874533653 0.0528169609606266 -2.4172160625457764 -0.6680909395217896 0.15871749818325043 0.11188998073339462 0.21276861429214478 0.04233851656317711 -23.85541534423828 -40.26847457885742 -19.156410217285156 -1.6004222631454468 65.39505767822266 2.7074224948883057 -3.428875684738159 -10.553630828857422 -10.118980407714844 -0.10807649046182632 -0.010929283685982227 -0.0006612838478758931 28.93754005432129 -39.11796569824219 21.473379135131836 1.5574164390563965 66.2531967163086 -3.020540952682495 4.4832634925842285 -10.624831199645996 13.978775024414062
-0.5678852088749409 66.51807427406311 -0.5807798355817795 -112.62905883789062 -78.09103393554688 -108.66414642333984 -9.627629280090332 19.67660903930664 1.7400301694869995 5.111912250518799 -10.413978576660156 0.33776670694351196 -5.733646869659424 13.956413269042969 -3.4982237815856934 9.812124252319336 -23.240068435668945 -3.5370917320251465 -0.13130177557468414 0.22674980759620667 0.05461812764406204 0.28127139806747437 -0.05036819353699684 0.15482598543167114 -0.07071789354085922 0.06734168529510498 -0.597136378288269 35.78788757324219 26.577959060668945 27.97317886352539 -26.63400650024414 -28.231056213378906 64.44535064697266 -1.0337159633636475 -33.3682746887207 -5.826670169830322 0.47706007957458496 0.12982891499996185 -0.11142396181821823 -0.2098330706357956 0.49197477102279663 0.6656098961830139 0.2195175588130951 0.3320872485637665 0.052731167525053024 7.807682037353516 5.3948211669921875 0.607593297958374 -0.12970755994319916 -0.03790271282196045 0.23595461249351501 3.1439967155456543 0.8484303951263428 0.13119567930698395 0.1974610835313797 -0.32931625843048096 -0.30908364057540894 10.330317497253418 0.5762557983398438 -0.07969550043344498 0.2218269258737564 -0.03761919587850571 0.22800755500793457 2.0063257217407227 -0.9422386288642883 -0.027852889150381088 -0.05784222111105919 -0.051528848707675934 0.0069273910485208035 -26.974796295166016 24.780031204223633 -55.226566314697266 26.846147537231445 -28.540409088134766 -65.24617767333984 0.3105243444442749 -16.058334350585938 2.0125198364257812 0.0540592335164547 0.11822616308927536 0.6471853256225586 0.3717309236526489 -0.03967504948377609 0.04666828364133835 -0.0916839987039566 -0.2273506224155426 0.13879574835300446 -7.681888580322266 5.144825458526611 -0.11270422488451004 -0.2895982265472412 0.05302904173731804 -0.22806528210639954 -2.857431650161743 1.0334421396255493 -0.40043020248413086 0.08202552795410156 0.04862603172659874 -0.19174467027187347 -10.827140808105469 0.29659929871559143 0.14887890219688416 0.12202217429876328 0.18522188067436218 -0.014347639866173267 -2.116508960723877 -0.6885030269622803 0.3363971710205078 -0.07834575325250626 -0.3731738328933716 -0.15988023579120636 -47.24043655395508 -61.13836669921875 -40.02146911621094 -3.0621416568756104 79.20703125 3.0118165016174316 -1.2951271533966064 -3.6313509941101074 -0.43525785207748413 -0.20380628108978271 -0.3191568851470947 -0.19020003080368042 10.756464004516602 -18.418827056884766 10.303961753845215 -0.05544516071677208 51.685794830322266 -1.3957476615905762 8.762524604797363 -12.612970352172852 25.78778076171875
-2.4502024985849857 71.99835777282715 -3.9298150688409805 -176.06588745117188 -28.128950119018555 -173.17897033691406 -9.50728702545166 25.94051742553711 -5.345458984375 10.338956832885742 -12.128815650939941 -0.03525116667151451 -7.57239294052124 15.756265640258789 -4.515929222106934 11.855995178222656 -24.097759246826172 -8.63902759552002 0.4416736960411072 0.5580049753189087 0.31081631779670715 -0.0919610932469368 -0.009149380028247833 -0.6901700496673584 0.2819289565086365 -0.3254735469818115 -0.9488844871520996 43.00270462036133 5.243913650512695 26.16585922241211 -27.236452102661133 -33.6750602722168 71.39369201660156 -8.54438304901123 -61.20053482055664 -15.786202430725098 -0.17834405601024628 -0.2248259037733078 0.05326531082391739 0.2344471663236618 -0.07553078234195709 1.4454846382141113 0.2277487814426422 0.22605854272842407 -0.8710657358169556 8.031061172485352 5.28717041015625 -0.180148646235466 0.5450677275657654 -0.5718719363212585 0.22647392749786377 2.5358779430389404 1.465881109237671 -0.7610995769500732 -0.5595818758010864 -1.2031601667404175 0.20713138580322266 10.265938758850098 0.9776332974433899 -0.7265883088111877 1.2902613878250122 -0.030203167349100113 -0.547696053981781 1.4816142320632935 -0.29871657490730286 0.6538301706314087 -0.23720477521419525 0.5595824122428894 -0.2777630090713501 -13.78254222869873 -5.515356063842773 -82.28942108154297 29.271570205688477 -31.72471046447754 -69.4501953125 0.3563058078289032 -25.812339782714844 2.830111026763916 0.605557918548584 1.0998029708862305 0.7668731808662415 0.01936478167772293 0.5632666945457458 0.3659400939941406 0.725317120552063 -0.17707663774490356 -0.05430855229496956 -6.790553092956543 4.767678737640381 -0.6571018099784851 0.19136296212673187 -0.26464608311653137 0.318668931722641 -3.8478894233703613 1.082494854927063 0.1153440773487091 0.41180357336997986 -0.2590169310569763 -0.9560654163360596 -10.820384979248047 0.2418431043624878 -0.2962258756160736 0.7228876948356628 -0.460126131772995 -0.7776377201080322 -1.8190301656723022 -1.7139590978622437 0.9967662692070007 0.3483094573020935 -1.6263971328735352 -0.3590906858444214 -87.09224700927734 -67.45220184326172 -77.75636291503906 -10.894058227539062 81.39824676513672 9.569184303283691 -1.0536147356033325 5.4171953201293945 11.46812629699707 0.9416724443435669 -0.5180675387382507 -0.15578734874725342 3.070183038711548 2.0696425437927246 7.961126327514648 -0.3922290802001953 45.918785095214844 -1.5940886735916138 17.052953720092773 -16.442012786865234 34.794742584228516
